<svg id="Layer_1" data-name="Layer 1" xmlns="http://www.w3.org/2000/svg" xmlns:xlink="http://www.w3.org/1999/xlink" viewBox="0 0 833.46 848.41"><defs><style>.cls-1{fill:url(#linear-gradient);}.cls-2{fill:url(#linear-gradient-2);}.cls-3{fill:url(#linear-gradient-3);}.cls-4{fill:url(#linear-gradient-4);}.cls-5{fill:url(#linear-gradient-5);}.cls-6{fill:url(#linear-gradient-6);}.cls-7{fill:url(#linear-gradient-7);}.cls-8{fill:url(#linear-gradient-8);}.cls-9{fill:url(#linear-gradient-9);}.cls-10{fill:url(#linear-gradient-10);}.cls-11{fill:url(#linear-gradient-11);}.cls-12{fill:url(#linear-gradient-12);}.cls-13{fill:url(#linear-gradient-13);}.cls-14{fill:#e5c767;}.cls-15{fill:url(#linear-gradient-14);}</style><linearGradient id="linear-gradient" x1="340.79" y1="659.4" x2="1064.92" y2="241.33" gradientUnits="userSpaceOnUse"><stop offset="0" stop-color="#996b2d"/><stop offset="0.08" stop-color="#debf62"/><stop offset="0.48" stop-color="#e2c365"/><stop offset="0.67" stop-color="#b18840"/><stop offset="1" stop-color="#e4c667"/><stop offset="1" stop-color="#a77c38"/></linearGradient><linearGradient id="linear-gradient-2" x1="642.18" y1="354.81" x2="771.52" y2="280.14" gradientUnits="userSpaceOnUse"><stop offset="0" stop-color="#996b2d"/><stop offset="0.38" stop-color="#debf62"/><stop offset="0.58" stop-color="#e2c365"/><stop offset="0.81" stop-color="#e4c667"/><stop offset="1" stop-color="#e5c767"/></linearGradient><linearGradient id="linear-gradient-3" x1="705.48" y1="512.62" x2="830.07" y2="440.68" xlink:href="#linear-gradient-2"/><linearGradient id="linear-gradient-4" x1="620.33" y1="645.4" x2="737.39" y2="577.81" xlink:href="#linear-gradient-2"/><linearGradient id="linear-gradient-5" x1="584.12" y1="508.62" x2="693.24" y2="445.62" xlink:href="#linear-gradient-2"/><linearGradient id="linear-gradient-6" x1="524.64" y1="625.94" x2="610.69" y2="576.26" xlink:href="#linear-gradient-2"/><linearGradient id="linear-gradient-7" x1="745.7" y1="647.09" x2="825.93" y2="600.77" xlink:href="#linear-gradient-2"/><linearGradient id="linear-gradient-8" x1="506.25" y1="495.38" x2="570.62" y2="458.22" xlink:href="#linear-gradient-2"/><linearGradient id="linear-gradient-9" x1="830.5" y1="495.32" x2="894.53" y2="458.36" xlink:href="#linear-gradient-2"/><linearGradient id="linear-gradient-10" x1="838.93" y1="623.04" x2="889.83" y2="593.65" xlink:href="#linear-gradient-2"/><linearGradient id="linear-gradient-11" x1="660" y1="273.74" x2="778.41" y2="205.37" xlink:href="#linear-gradient-2"/><linearGradient id="linear-gradient-12" x1="634.44" y1="251.24" x2="750.15" y2="184.44" xlink:href="#linear-gradient-2"/><linearGradient id="linear-gradient-13" x1="651.67" y1="314.08" x2="745.02" y2="260.18" xlink:href="#linear-gradient-2"/><linearGradient id="linear-gradient-14" x1="634.64" y1="748.9" x2="769.78" y2="670.88" xlink:href="#linear-gradient-2"/></defs><title>ichiumai_logo</title><path class="cls-1" d="M331.78,641c.86,1.28.55.89,2,3.14,7.59,13.27,21,34,32.79,50.6,21,29.68,46,55.76,74.16,78.9a390.42,390.42,0,0,0,66.12,44.55c20.88,11,42.12,21.36,64.69,28.78,19,6.24,38,12.31,57.82,14.92,11.36,1.49,22.84,2.21,34.29,2.77,13.2.64,26.43,1.31,39.62.92,19.12-.56,38.25-1.67,57.12-5.21C773,858,785.76,856.06,798.23,853a324.13,324.13,0,0,0,46.12-14.52c26.3-10.74,51.71-23.11,75.44-38.85a434.89,434.89,0,0,0,71.29-58.51c17-17.36,32.68-35.71,45.69-56.21,12.56-19.8,24.49-40,34.19-61.41,6.81-15.07,13.33-30.21,17.7-46.16,3.07-11.23,5.75-22.58,8.28-34,2.28-10.2,4.26-20.47,6-30.77,1.13-6.49,2.41-17.18,2.91-23.75,1.27-16.62,3.62-35,3.1-49.89a249.19,249.19,0,0,0-2.23-29.91c-1.56-8.57-1.93-9.62-1.8.24-.28,4.84.19,4.66-.09,10-.06,8,.52,15.5-.29,23.8-1.47,20.21-2,38-4.72,57.33a420.82,420.82,0,0,1-17.21,72.4,543.73,543.73,0,0,1-30,73.81c-12,24.08-27.56,45.9-44.58,66.67A394.12,394.12,0,0,1,940,778.61a376,376,0,0,1-53.88,33.79c-9.64,5-25.38,12.16-28.73,13.64-.89.32-1.76.68-3,1.08-4.24,1-3.16.54,2-2.17,6.66-3.5,9.7-4.86,17.85-9.66,3.28-1.85,5.24-3.1,7.85-4.62,32.13-19.27,48.26-31.09,68.06-49.28,21.32-18.76,47.61-49.88,55.09-65.27-5.87,6.2-31.37,30.62-36.92,33.5-3.41,1.86-4.9,2.32-3.24.92A111.15,111.15,0,0,0,974,722c3.63-3.6,28.72-32.35,43-53.85a386.44,386.44,0,0,0,33.9-62.23c4.33-10.19,7.92-20.73,11.29-31.29,3.85-12.06,7.42-24.23,10.46-36.51,2.17-8.74,3.38-17.74,4.81-26.65,1.39-8.64,2.54-17.33,3.73-26q.51-3.78.68-7.59c.35-8.16.72-16.33.9-24.49.13-5.35,0-10.7-.19-16.05-.37-10.28-.06-20.61-.8-30.86-.6-8.29-1.88-16.56-3.19-24.78-1.55-9.75-3.17-19.5-5.29-29.13-1.94-8.8-4.42-17.49-7-26.13-2.95-10-5.71-20.05-9.55-29.69-4.3-10.78-9.55-21.21-14.7-31.63-12.76-25.84-28.83-49.59-46.4-72.36-2.66-3.44-4.95-7.2-7.82-10.44-4.37-4.93-9-9.65-13.7-14.25-6.48-6.31-13-12.55-19.77-18.59-30.39-27.25-64-49.63-101.29-66.34a353.16,353.16,0,0,0-49-17.72C790.64,61.61,777,58,763.27,55.32,749,52.54,734.34,49.94,719.39,49c-14.33-1.24-28,.17-42.26-.19-10.49.38-17.93,1.39-29.3,2.47-10.54,1.32-11.39,1.72-18.94,3-5.75.94-6.82,1.64-12.89,2.65a418.66,418.66,0,0,0-76.76,25.27,389,389,0,0,0-60.64,33.41,350.9,350.9,0,0,0-52.12,42.49c-6,6-12.65,11.39-18.72,17.35-3.45,3.4-6.33,7.38-9.46,11.11-14.55,17.36-28.51,35.27-39.35,55.14-9.55,17.51-20.13,34.6-26.81,53.56-3.4,9.65-6.74,19.32-9.78,29.09q-4.1,13.15-7.43,26.54c-2.27,9.18-4.11,18.46-5.94,27.74-1.27,6.46-2.95,17.09-3.64,23.64Q304,415.14,303.18,428c-.45,7.46-.22,12.88-.36,20.36,0,2.23-.18,11.48-.85,7.48s-.63-6.51-.87-9.09a259.7,259.7,0,0,1,0-35.62c1.1-19,4.67-37.63,8.71-56.16,2.06-9.47,2.72-13,5.2-22.35,1.31-5.36,2-6.71,3.22-12.14,1.45-5.12,1.5-6.23-1.18.56-3.22,8.77-15.15,49.8-17.61,70.73-2.8,17.81-3.73,32.16-5.33,52.86a108.32,108.32,0,0,1-1.09,11.4c-2.56-5.24-1.91-37.44,1.68-63.33,2.91-20.93,7.93-48.19,10.17-55.3,2.44-7.7,1-3.36,3.7-11,3.64-10.24,5.62-14.44.88-5.93a70.71,70.71,0,0,0-5,11.09c-1.2,3.67-.48,1.78-2.17,7.16-2.57,8.34-2,6.51-2.57,8.34a91.28,91.28,0,0,0-2.11,9.48c-.91,4-1.7,8.82-2.81,14.6-.95,5.46-1.9,11.08-2.87,16.54s-2,10.93-2.59,16.44-.84,10.95-1.45,16.54c-.36,5.43-.35,8.3-.82,15-.35,5.4-.63,10.39-.94,16l-.15.77c-.32-.31-.71-5.28-.74-6.19a277.22,277.22,0,0,1,1.41-42.83c.72-7.09,1.6-14.18,2.68-21.22,1.34-8.71,2.53-17.47,4.59-26,2.45-10.2,5.43-20.3,8.76-30.26,13.82-41.39,32.17-80.63,56.71-116.83a428.74,428.74,0,0,1,78.06-86.62,405.89,405.89,0,0,1,99.27-61.93c17.62-7.77,35.66-14.55,54.42-19.17,10.75-2.65,21.46-5.48,32.27-7.87A176.77,176.77,0,0,1,640.94,31c9.13-1.1,18.29-2,27.44-3,19.78-2.21,39.55-2.57,59.36,0,9.3,1.18,18.72,1.49,28,2.9,11.49,1.75,22.85,4.41,34.27,6.59,2.54.48,5.08,1,7.59,1.61a413.28,413.28,0,0,1,66.35,22.48,420.68,420.68,0,0,1,81.69,46.9A425.17,425.17,0,0,1,1021.93,180a451,451,0,0,1,52.42,78.36,279.57,279.57,0,0,1,18.86,44c3.41,10.55,7,21.05,10.13,31.68,2,6.64,3.24,13.47,4.68,20.24s2.81,13.58,4,20.41c.87,5,1.58,10,2.09,15q1.77,17.37,3.25,34.78c1.72,19.81,1.27,31.26-.31,59.42-1.07,10.19-1.52,19.61-3,30.56-1.27,7.78-1.17,10.06-3.16,20.41a136.27,136.27,0,0,1-3,14.54c-2.2,9.25-4.65,18.44-7.27,27.58a398.49,398.49,0,0,1-18.88,51.27,391.22,391.22,0,0,1-26.2,49.22c-21.24,34-46.45,64.68-76.45,91.35a428.21,428.21,0,0,1-61.86,46.12,419.69,419.69,0,0,1-76,36.39c-10.62,3.82-21.35,7.41-32.23,10.35-10.69,2.89-21.6,5.08-32.49,7.11C755,872.08,753.12,872,742.46,873c-11.69.54-22.59,1.42-33.73,1.58a68.51,68.51,0,0,1-7.92-.32c-8.82-.75-8.17-.85.31-1.61,5.77-.48,10.12-.69,11.84-.85,12.48-1.16,17.78-1.66,30.23-3,6.54-.72,7.49-.74,19.19-3.07,5.79-1.22,4.51-1,9.82-2.38,9.77-3,8.53-2.9.37-1.44-3.15.55-3.48.62-4.87.88-12.67,2.3-25.46,3.4-38.27,4.59a400,400,0,0,1-52.14,1A395.21,395.21,0,0,1,623.84,863c-16.28-2.85-32.4-6.4-48-11.77A322.94,322.94,0,0,1,543,838c-16.49-7.81-33-15.67-48.82-24.79A413.77,413.77,0,0,1,367.3,700a457.74,457.74,0,0,1-35.83-57.39c-3.19-6.08-2-4.2-.57-2.68ZM928.94,799.88c25.8-13,87.93-71.16,94.19-87.63A476.7,476.7,0,0,1,928.94,799.88Zm100.24-590.54c17.91,30.79,31.26,54.19,43.11,79.27C1068,272.62,1039.79,223.55,1029.18,209.34Z" transform="translate(-285.01 -26.19)"/><path class="cls-2" d="M621.33,293.29a67.61,67.61,0,0,1,7-.7c19.47.16,38.94.5,58.41.58,15.82.08,31.65-.13,47.47-.19q20.87-.06,41.74,0a17.67,17.67,0,0,1,3.32.71c.1,1.46.29,2.79.26,4.11-.31,15.39-4.87,29.64-11.75,43.25a24.69,24.69,0,0,1-2.5,4,169,169,0,0,1-25.51,26.75,11.14,11.14,0,0,1-7.54,2.95c-20.52-.06-41,0-61.56-.21A15.68,15.68,0,0,1,663,372c-11.84-7.48-20.88-17.72-28-29.68-4.89-8.24-9.1-16.88-11.33-26.22C621.94,308.92,619.89,301.65,621.33,293.29Z" transform="translate(-285.01 -26.19)"/><path class="cls-3" d="M720.72,415.19h16.92c1.45,9,.57,17.83.73,26.6s0,17.66,0,27.31c20,.49,39.64.71,59.74.07,1.54-9.47.63-18.32.79-27.1s0-17.31,0-25.66c4.35-1.87,11.5-2,16.86-.41a47.78,47.78,0,0,1,.67,5.78q.07,55.58,0,111.17c0,1.54-.28,3.08-.41,4.42-5.14,3.11-12.47,2.92-17.15-.56,0-8.35.06-17,0-25.7s.41-17.27-.42-26.14h-60c-.08,1.81-.22,3.48-.22,5.15,0,14.09.06,28.18,0,42.27,0,2.05-.35,4.09-.56,6.42-5.75,1.56-11.15,1.24-17,.21Z" transform="translate(-285.01 -26.19)"/><path class="cls-4" d="M711.16,559H726.5a30.19,30.19,0,0,1,1.76,5.42c.65,4.83,1.17,9.68,1.45,14.54.75,12.67,1.14,25.36,2,38,.88,12.12,2.25,24.2,3.38,36.3.09,1,0,2,0,3-3.78,2.21-7.89,2.3-13.27.18-2.15-24.8-4.31-49.82-6.48-74.84l-1.17-.33c-3.14,5.69-4.8,12.06-7.26,18-2.64,6.4-5.07,12.9-7.53,19.37-2.4,6.31-4.74,12.64-7.08,19s-4.66,12.64-7,19c-6.47,2.72-8.59,1.54-11-5.12-4.42-12.23-9.14-24.35-13.76-36.51q-5.34-14.1-10.75-28.19a13.75,13.75,0,0,0-3-4.8c-4.05,24.76-3.47,49.77-7.67,74.88-3.61,1.8-7.76,1.11-12.14.17,0-5.62-.27-11,.06-16.26.45-7.1,1.43-14.17,2.07-21.26q1.86-20.25,3.57-40.5c.5-6,.73-12.1,1.11-18.53,5.47-3.37,11.42-.79,17.76-1.89l27.81,73,1.28.05a30.12,30.12,0,0,0,2.13-3.78q9-23,17.82-46.12c2.31-6,4.53-12,7-17.94C708.46,562,710,560.52,711.16,559Z" transform="translate(-285.01 -26.19)"/><path class="cls-5" d="M693.48,507.56A56.21,56.21,0,0,1,683.72,522a54.5,54.5,0,0,1-32.42,17.51c-9.81,1.49-19.92,1.67-29.92-1.36a68.45,68.45,0,0,1-21.29-10.57c-11.78-8.73-18.16-20.71-21.43-34.68a68.65,68.65,0,0,1,.58-35.07c5.54-19.05,17.25-33.07,36.27-40.31,11.5-4.38,23.07-5.06,35.25-2.87,17.77,3.2,31,12.4,40.45,27.48a36.76,36.76,0,0,1,2.13,5l-14.68,5.72c-2.77-3.65-5-6.95-7.59-9.92C665,436,657.3,432.45,648.2,430.61a49.78,49.78,0,0,0-27.11,2c-12.87,4.62-21.15,14-25,27.34-2,6.88-1.19,13.76-1.47,20.65-.27,6.53.48,12.89,3.27,18.8,7.05,14.91,18.59,23.56,35.39,24a82.08,82.08,0,0,0,18.08-1.14,35.62,35.62,0,0,0,24.92-18.1c.43-.75,1-1.44,1.68-2.54C683.46,502.21,688.35,504.4,693.48,507.56Z" transform="translate(-285.01 -26.19)"/><path class="cls-6" d="M530.77,559.05h10.09c2.73,1.63,2.71,4.14,2.71,6.86q0,29.24.22,58.48c0,2.93.05,6.07,1.07,8.73,2.86,7.5,7.83,12.77,16.59,12.69,4.5,0,9.17.33,13.46-.71,7.15-1.73,12.66-9.59,12.72-17.34.17-20.71.17-41.42.22-62.13,0-2.44-.38-5,2.76-6.6h10.14c.44,2,1.24,3.9,1.25,5.83.12,15.49.21,31,0,46.46-.07,7.12-.15,14.34-1.29,21.33-2,12-9.56,19.86-20.78,24a39.61,39.61,0,0,1-31.9-1.72c-10.52-5.15-17.11-13.77-17.44-25.85-.59-21.56-.75-43.14-1-64.71C529.62,562.74,530.31,561.11,530.77,559.05Z" transform="translate(-285.01 -26.19)"/><path class="cls-7" d="M837.85,656.88H825.16c-2.71-7-5.41-14.1-8.22-21.45H772.75c-1.23,2.91-2.74,6.12-4,9.44-1.07,2.92-1.69,6-2.75,8.93-.44,1.21-1.32,2.82-2.36,3.16-4.3,1.41-8.69,1.89-12.68-.67,6-16.24,11.74-32.16,17.62-48s11.78-31.49,17.83-47.65c4.5-3,9.7-2.31,14.65-.89,1.56.45,3,2.93,3.64,4.77,6.2,16.94,12.17,34,18.3,50.91,4.49,12.4,9.14,24.74,13.68,37.12C837.13,653.6,837.31,654.77,837.85,656.88Zm-60.94-34.81H811c.52-6.46-12.36-41.75-17.19-46.58Z" transform="translate(-285.01 -26.19)"/><path class="cls-8" d="M530.71,415.42h15.2a45.06,45.06,0,0,1,.81,5.77q.07,56.06,0,112.11a35.54,35.54,0,0,1-.67,4.92c-4.44,1.95-8.62,1.29-12.7.76-3.29-.43-3.77-2.92-3.74-5.84.1-10.43,0-20.86,0-31.29q.07-38.84.2-77.69C529.9,421.44,530.39,418.73,530.71,415.42Z" transform="translate(-285.01 -26.19)"/><path class="cls-9" d="M855.31,538.28V415.79a32.24,32.24,0,0,1,14.79.26,52.68,52.68,0,0,1,.74,6.13q.06,48,0,95.93c0,4.16.38,8.33.42,12.5,0,2.2-.33,4.41-.51,6.67C865.67,540,860.87,539.73,855.31,538.28Z" transform="translate(-285.01 -26.19)"/><path class="cls-10" d="M870.69,656.82H858.44c-.2-3.9-.53-7.45-.53-11q-.07-37.34,0-74.67a63.94,63.94,0,0,1,0-6.78,30.26,30.26,0,0,1,1.54-5.26h9.79c2.32,1.49,2.53,3.64,2.52,6q-.18,43.32-.32,86.66A40.47,40.47,0,0,1,870.69,656.82Z" transform="translate(-285.01 -26.19)"/><path class="cls-11" d="M780.29,210.5c1.65.21,1.68,1,2.77,3.48.5,1.63,1.2,3-.88,3.71-20.51,7.46-44.91,16.5-65.47,23.84-19.42,6.94-38.77,13.67-58.2,20.56a47.34,47.34,0,0,1-4.7.93C665.07,253.54,778.16,210.21,780.29,210.5Z" transform="translate(-285.01 -26.19)"/><path class="cls-12" d="M744.06,177.76c.85-.15,3.85,1.65,4.6,4.5.11,3.26-73,51.66-109.64,76.91,1.3-2.76,1.78-3.77,3.05-5.2,14.15-11.25,28.24-22.57,42.56-33.6,11-8.48,22.31-16.59,33.51-24.83,6.3-4.63,12.6-9.27,19-13.71C739.43,180.27,741.05,178.72,744.06,177.76Z" transform="translate(-285.01 -26.19)"/><path class="cls-13" d="M760.16,286.41c-1.9.79-3,1.69-4.06,1.61-6.38-.49-12.75-1.2-19.25-1.85-1.65-1.95-3.19-4.07-5-5.89-4.49-4.45-9.8-5.59-15.81-3.54-2.56.87-5.18,1.54-8.15,2.41-.39-2.71-.68-4.7-1-6.94-5.24-1.13-10.28-3.76-15.58-.79a39.84,39.84,0,0,0-6.19,4.49c-2.2,1.87-4.21,4-6.62,6.3-2.12-3-3.7-6.1-7.36-5.64-3.84.48-7.45,1.73-10,4.95-1.18,1.49-2.33,3-3.74,4.82-6.56.66-13.13,2.75-19.93,3.09-.15-.37-.3-.74-.44-1.1.63-.64,1.16-1.53,1.92-1.85a33.78,33.78,0,0,1,5-1.5c6.41-1.56,12.71-3.11,17.82-7.88,4.23-4,9.82-4.77,15.46-5.29,2.65-.24,5.63-.82,7.74-2.28,8.34-5.81,16.45-5.5,24.72-.13,1.16.76,2.37,1.44,3.73,2.25H728a27.31,27.31,0,0,1,4.43,3.43c4.6,5.27,10.86,6.45,17.25,7.37A22.47,22.47,0,0,1,760.16,286.41Z" transform="translate(-285.01 -26.19)"/><path class="cls-14" d="M643.11,851.39c-6.45-1-4.55-.64-6.45-1-33.29-5.55-65.72-14.06-96.42-28.37-16.91-7.88-33.52-16.33-48.5-27.63,23.71,13,47.57,25.45,73.2,34.47,25.38,8.92,60.74,16.71,73.45,19.62C651.09,851.67,654.46,852.41,643.11,851.39Z" transform="translate(-285.01 -26.19)"/><path class="cls-14" d="M673.52,858.81c14,.47,16.63.6,40.62-.16a396,396,0,0,0,39.91-4.32c13.24-2.09,26.31-5.28,39.54-7.39-39.23,11.21-79.1,16.55-119.89,13.32C666.13,859.63,659.26,858.45,673.52,858.81Z" transform="translate(-285.01 -26.19)"/><path class="cls-15" d="M633.79,714a5.68,5.68,0,0,1-2.79,5.07,13.75,13.75,0,0,1-7.46,1.74c-.88,0-2.61,0-5.18-.1q.24-5.24.24-11.56,0-5.94-.24-10.44h2l2.38-.05c1.2,0,2.07,0,2.61,0,4.68,0,7,1.61,7,4.85a4.88,4.88,0,0,1-3.33,5v.17Q633.79,709.52,633.79,714Zm-4.22-9.7q0-3.49-4.72-3.5a23.18,23.18,0,0,0-3.83.26q.13,1.22.13,6.88.83,0,1.83,0a11.44,11.44,0,0,0,4.86-.76A3,3,0,0,0,629.57,704.3Zm1.37,10q0-4.15-7.37-4.16c-.9,0-1.7,0-2.38.1q0,4.51.18,8.07a11.58,11.58,0,0,0,2.27.15q4.07,0,5.78-1.07A3.39,3.39,0,0,0,630.94,714.29Z" transform="translate(-285.01 -26.19)"/><path class="cls-15" d="M652.37,718.16l-.1,2.55H638.64q.24-5.24.24-11.56,0-5.94-.24-10.44h12.78l-.13,2.52q-4.65-.21-9.86-.21.11,2.63.1,7.09,4.5,0,8-.21v2.52q-3.75-.15-8-.15c0,2.89.05,5.61.16,8.14Q647.3,718.41,652.37,718.16Z" transform="translate(-285.01 -26.19)"/><path class="cls-15" d="M669.5,715q0,6.26-8.7,6.25a19.73,19.73,0,0,1-5.64-.73l.59-2.65a16.61,16.61,0,0,0,5.39,1q5.75,0,5.74-3.24a3.47,3.47,0,0,0-1.48-2.81,21.92,21.92,0,0,0-3.92-2.08,16.07,16.07,0,0,1-4.31-2.52,5.57,5.57,0,0,1,0-8.06,7.92,7.92,0,0,1,5.49-1.75,19.23,19.23,0,0,1,5.51.52l-.4,2.69a18.13,18.13,0,0,0-5.46-.82q-4.35,0-4.35,2.91a2.85,2.85,0,0,0,1.25,2.35,22.68,22.68,0,0,0,3.59,1.79,18,18,0,0,1,4.56,2.6A5.84,5.84,0,0,1,669.5,715Z" transform="translate(-285.01 -26.19)"/><path class="cls-15" d="M688.43,698.71l-.08,2.38q-3.35-.17-6.92-.17,0,3.26,0,8.23,0,5.52.17,11.56h-3.09q.19-5.76.2-11.56c0-3.27,0-6-.1-8.23q-2.51,0-7,.21l.08-2.42Z" transform="translate(-285.01 -26.19)"/><path class="cls-15" d="M713.56,698.71l-.08,2.38q-3.35-.17-6.92-.17,0,3.26,0,8.23,0,5.52.17,11.56h-3.09q.2-5.76.2-11.56c0-3.27,0-6-.1-8.23q-2.51,0-7,.21l.08-2.42Z" transform="translate(-285.01 -26.19)"/><path class="cls-15" d="M734.38,720.71h-3.56q0-1.12-2.13-7.11h-9.75q-2.1,5.89-2.1,7.11h-3.41c0-.41,1.45-4,4.36-10.8s4.36-10.53,4.36-11.2h3.92q0,1,4.15,11T734.38,720.71Zm-6.47-9.33q-4-9.92-4-10.54h-.19q0,.52-4.1,10.54Z" transform="translate(-285.01 -26.19)"/><path class="cls-15" d="M750.59,715q0,6.26-8.7,6.25a19.85,19.85,0,0,1-5.65-.73l.59-2.65a16.65,16.65,0,0,0,5.39,1q5.74,0,5.75-3.24a3.48,3.48,0,0,0-1.49-2.81,21.2,21.2,0,0,0-3.92-2.08,16.41,16.41,0,0,1-4.31-2.52,5.19,5.19,0,0,1-1.7-4,5.25,5.25,0,0,1,1.74-4.08,7.89,7.89,0,0,1,5.49-1.75,19.23,19.23,0,0,1,5.51.52l-.41,2.69a18,18,0,0,0-5.46-.82q-4.33,0-4.34,2.91a2.85,2.85,0,0,0,1.25,2.35,22.42,22.42,0,0,0,3.58,1.79,18.09,18.09,0,0,1,4.57,2.6A5.84,5.84,0,0,1,750.59,715Z" transform="translate(-285.01 -26.19)"/><path class="cls-15" d="M769.52,698.71l-.09,2.38q-3.34-.17-6.91-.17,0,3.26,0,8.23c0,3.68,0,7.53.17,11.56h-3.1q.21-5.76.21-11.56c0-3.27,0-6-.1-8.23q-2.5,0-7,.21l.09-2.42Z" transform="translate(-285.01 -26.19)"/><path class="cls-15" d="M786.79,718.16l-.1,2.55H773.07q.23-5.24.23-11.56,0-5.94-.23-10.44h12.77l-.13,2.52q-4.65-.21-9.85-.21c.06,1.75.1,4.11.1,7.09q4.49,0,8-.21v2.52q-3.75-.15-8-.15c0,2.89,0,5.61.15,8.14Q781.72,718.41,786.79,718.16Z" transform="translate(-285.01 -26.19)"/></svg>